<?xml version="1.0" encoding="utf-8"?>
<!-- Generator: Adobe Illustrator 25.0.0, SVG Export Plug-In . SVG Version: 6.00 Build 0)  -->
<svg version="1.1" id="katman_1" xmlns="http://www.w3.org/2000/svg" xmlns:xlink="http://www.w3.org/1999/xlink" x="0px" y="0px"
	 viewBox="0 0 560 400" style="enable-background:new 0 0 560 400;" xml:space="preserve">
<style type="text/css">
	.st0{fill-rule:evenodd;clip-rule:evenodd;fill:#D71A21;}
	.st1{fill-rule:evenodd;clip-rule:evenodd;fill:#FFFFFF;}
</style>
<path class="st0" d="M120,30.7h320v338.7H120V30.7z"/>
<g>
	<path class="st1" d="M294.1,114.6c-2,2.6-3.1,5.8-3.1,9.1v28.6c-0.1,2.2-1,4.2-2.3,5.9c-0.7,0.7-5.1,4.7-5.5,5.1l2.5,0.1
		c0.8-0.7,9.3-8.3,10.1-9.3c2.5-2.7,3.9-6.2,3.9-9.9v-27.5c-0.1-2.8,1-5.5,2.9-7.5c1-1.1,4.3-3.9,4.9-4.6l-2.6-0.1
		C304.3,105.3,295,113.7,294.1,114.6L294.1,114.6z"/>
	<path class="st1" d="M273.2,218.6l10.4,9h6.9c6.6,0,13.1-2.6,17.8-7.3c4.3-4.3,5.8-10,5.8-15.4v-14.9c-0.1-3.4-1.5-6.6-4-8.8
		c-0.4-0.4-3.5-3.4-3.5-3.4v11.4c0,0,3.4,3.4,4,4.1c3.1,3.3,3.1,9.3-6.7,18.7c-1.7,1.6-6.6,6.3-13.3,6.3L273.2,218.6L273.2,218.6z"
		/>
	<path class="st1" d="M302,157.6c-1.1,1.2-2.2,4.2-2.2,6.9v5.6h5.7c2.2,0,5.1-2,5.7-3.1v-5.6c0.8,1.2,1.9,2.3,3.1,3.2
		c0.6-0.7,5.8-7,10.1-7.1c7.2-0.1,5.6,9.1,2.7,12c-1,1-5.2,4.9-6.6,6.1c-3.4,3.3-9.3,1.7-9.3-6.7c0,0-6.3,6-7.2,6.8
		c-1,0.8-4.2,4.3-4.2,4.3v14.9c0,7.1-2.3,9.5-4.3,11.6c-0.7,0.8-8.7,8.1-9.9,9l-2.6,0.1c0,0,4.7-4.3,5.6-5.2c1-1.1,2.3-3.4,2.3-7.1
		c0-1-0.1-23.3-0.1-23.3h-36.4c-12.7,0-15.4-14-15.4-17.8V148c0-2.3-1.5-6.2-3.8-7.4h3.6c0.4,0.1,2.7,1,2.7,9.7c0,0-0.1,10-0.1,10.6
		c0,4.4,3.5,9.4,8.5,9.4l41.2-0.1c0-1.1,1.1-5.3,3.1-7.5c1.1-1.3,10-9.3,11-10.1h2.6c-0.4,0.4-4.7,4.2-5.6,5.2L302,157.6z
		 M315.5,166.1c1,1.4,2.2,2.8,3.5,4.1c4.5,3.6,6.6-0.3,3.6-4.3C321.4,164.2,316.9,164.6,315.5,166.1L315.5,166.1z"/>
	<path class="st1" d="M271.4,192.6c0,2-6.3,7.3-6.7,7.6c-0.4-2.2-2.1-4.5-6.8-9.3l6.9-6.9C269.5,188.7,271.4,189.8,271.4,192.6
		L271.4,192.6z"/>
	<path class="st1" d="M283.4,112.8c1.4,1.4,4.4,5.1,2.6,7c-1.6,1.6-4,4.1-4,4.1c-0.1-0.9-2.5-3.1-2.5-3.1v7.5
		c-0.1,3.1-1.2,3.9-1.2,3.9s5.6,5.5,5.6,12.7v7.3c0.1,1.3-0.4,2.8-1.4,3.7c-0.5,0.6-5.7,5.8-6.5,6.5c-1.2,1-2.7,1.6-4.3,1.6h-19.3
		c-3.1,0-6.2-2.4-6.2-4.8c0-0.6,0.1-7.2,0.1-7.2c1,1.1,2,2.5,4.4,2.5c1.9,0,3.9-1.5,4.4-2.1c0.5-0.6,14.6-15.2,14.6-15.2
		s-6.6-6.1-10.9-9c-2.1-1.4-4.9,0.4-5.4,2.2c-1.3,5.8,0,14.6,0,14.6l-5.3-5.3c-2.2-2.2-2.1-7,0.5-9.6c0.4-0.4,4.3-4.8,9.3-4.8h7.7
		c5.1,0,10.8,5.1,10.8,5.1c0.4-0.5,0.7-1.1,0.8-1.8c0-2.7-0.1-9.8-0.1-9.8c-3.9-3.9-4.4-7.9-2.5-9.8c3.5-3.5,4.8-4.7,4.8-4.7
		S279.3,108.8,283.4,112.8L283.4,112.8z M259.2,151.7c-1.9,2-2.2,2.5-4,3.6H277c5.9,0,4.7-3.7,3.7-5.5c-2.2-3.8-9-10.8-9-10.8
		S259.6,151.3,259.2,151.7z"/>
	<path class="st1" d="M234.3,171.5h-3.6c0,0,3.8,2.1,3.8,7.5v17.4c0,11.3,9.3,21.7,20.7,21.7h9.5c5.7,0,7.7-1.3,11.1-4.4
		c1.3-1.1,2.9-3,3.5-3.7c1.9-2.2,4.1-4,4.1-9.9v-5.7c0-4.9-2.8-6.9-4.3-8.4c-0.9-0.9-3.3-3.2-3.3-3.2v11.6c0,0,2.4,2.5,3.4,3.4
		c4.9,3.9,1,10.6-3.6,10.6h-20.8c-7.6,0.1-18-6.6-18-18.1v-9.4C237,171.5,234.3,171.5,234.3,171.5L234.3,171.5z"/>
	<path class="st1" d="M257.2,192.7c0,2-6.3,7.3-6.7,7.6c-0.4-2.2-2.1-4.5-6.8-9.3l6.9-6.9C255.2,188.7,257.2,189.8,257.2,192.7
		L257.2,192.7z"/>
	<path class="st1" d="M184.4,269.9h-11.2c-3.5,0-3.2-2.9-3.6-5.4v-16c0,0,2.5-0.1,5.2-0.1c3.1,0,6.9-0.4,10.7,1.6
		c-1.9-4.1-6.1-6.6-10.7-6.5h-5.1v-5.1c0,0,0-4.5-1.1-5.7h7.4c6.3,0,11.3-0.1,16.4,3.3c0,0-1-8.4-13.3-8.4h-24c0,0,4.2,3.6,4,10.8
		l0.1,29.1c0,7.3,2.9,7.5,2.9,7.5h23.7c5.4,0,7.2-3.8,7.2-5.9l0.1-2.8C193.1,266.4,191.4,269.9,184.4,269.9L184.4,269.9z"/>
	<path class="st1" d="M247.4,267.5v-20.4c0-7.9-6.4-10-11.3-10c-6.3,0-8.3,5.3-9.1,7.2c-1.4-4.9-6.4-7.2-10.4-7.2
		c-7.7,0-9.6,7.3-9.6,7.3s-0.1-7.1-6.3-7.1h-6c0,0,3.5,1.4,3.5,7.5v22.6c0,7.5,3,7.6,3,7.6h10c-2.4-1.8-3.8-4.6-3.8-7.7v-20.1
		c0.1-0.9,1.6-3.9,5.9-3.9c2.5,0,5.1,2.5,5.1,5.4v18.7c0,7.5,3,7.6,3,7.6h10c-2.4-1.9-3.8-4.6-3.8-7.7v-20.1c1-2.9,4.1-4.6,7.1-3.6
		c2.2,0.7,3.8,2.8,3.9,5.1v18.6c0.1,7.6,3,7.5,3,7.5h10C248.9,273.2,247.5,270.5,247.4,267.5L247.4,267.5z"/>
	<path class="st1" d="M264.9,267.5c0,3,1.4,5.8,3.8,7.6h-10c0,0-3.1,0.1-3.1-7.5v-22.8c0-6-3.4-7.5-3.4-7.5h6c2.2,0,6.6,0,6.6,8.4
		v21.6L264.9,267.5z"/>
	<path class="st1" d="M295.6,240.2c0,0-1-2.7-5.1-2.7c-6.3,0-7.8,7.5-7.8,7.5c-0.5-5.9-2.1-7.6-6.5-7.6h-6c0,0,3.5,1.4,3.5,7.5v22.6
		c0,7.5,3,7.6,3,7.6h10c-2.4-1.8-3.8-4.6-3.8-7.6v-18.6c0.2-1.6,1.1-3,2.5-3.8c3.4-2.2,7.8-1.6,10.4,1.5L295.6,240.2L295.6,240.2z"
		/>
	<path class="st1" d="M342.1,241.5c2.1,0,4.1,0.5,5.9,1.5v-5.7h-8.4v-8.7c-1.8,2.8-4.1,5.4-6.7,7.5c-2.8,2.3-8.8,5.2-8.8,5.2
		l6.3,0.1v26.3c0,7.3,3.1,7.3,3.1,7.3h9.9c-2.4-1.7-3.8-4.5-3.9-7.4v-26.2H342.1L342.1,241.5z"/>
	<path class="st1" d="M372.4,252.9c-5.6,5.8-10,4.9-13.5,9.3c0,0,0.6,5.8,5,7.8c1.5,0.7,7.7,2.9,11.6-4v6.1c0,0-2.5,3-10.7,3
		c-9.8,0-16.5-7.7-16.5-18.1c0-10.3,5.4-19.8,15.8-19.9C374.3,237,379.8,245.2,372.4,252.9L372.4,252.9z M366.3,250.5
		c1.6-3.1,3-10.8-2.7-10.4c-6.6,0.5-5.3,17.9-5.3,17.9C360.5,255.7,363.7,255.2,366.3,250.5L366.3,250.5z"/>
	<path class="st1" d="M260.2,234.3c2.5-0.1,4.5-2.2,4.5-4.6c-0.1-2.5-2.2-4.5-4.6-4.5c-2.5,0.1-4.5,2.1-4.5,4.6
		C255.6,232.3,257.7,234.3,260.2,234.3L260.2,234.3z"/>
	<path class="st1" d="M306,270.8c-2.2,0-3.9-2.4-3.9-4.8c0-9.4,7.7-10.7,9.8-13.2v15.9C310.9,269.4,310,270.8,306,270.8z
		 M311.9,249.1c-2.3,4-20.4,4.9-17.6,18.9c1.1,5.5,4.8,7.2,9.4,7.2c4.5,0,7.2-2.3,8.4-4.6c0.7,4.2,2.8,4.5,2.8,4.5h10
		c-2.4-1.8-3.9-4.6-3.9-7.5v-21.3c0-5.1-5.6-9-11.6-9c-3.4-0.1-6.6,0.9-9.3,2.8v6.6c0,0,2.1-5.2,7.2-5.2c5.1,0,5.4,2.5,5.4,3.8
		C312.9,246.5,312.6,247.9,311.9,249.1L311.9,249.1z"/>
	<path class="st1" d="M394.5,264.8c0.1,2.7-2.3,6.2-7.4,6.2c-5.2,0-7.3-5.3-7.3-5.3v6.7c2.8,1.8,6.1,2.7,9.5,2.7
		c6.8,0,13.7-5.1,13.6-12.4c-0.1-2.4-0.9-4.7-2.3-6.6c-2.3-3.1-6.5-5.2-9.8-7.2c-1.9-1.1-2.8-3.2-2.8-3.9c-0.1-1.3,0.6-3.8,5.6-3.8
		c4.9,0,7.1,5.2,7.1,5.2v-6.3c-2.8-1.9-6.1-3-9.6-3c-6,0-11.4,4-11.3,9c0.1,4.5,1.9,7.3,5.6,10.1c1.6,1.2,3.4,2.2,5.1,3.2
		C393.4,261,394.4,262.9,394.5,264.8L394.5,264.8z"/>
</g>
</svg>
